<?xml version="1.0" encoding="UTF-8"?>
<svg width="640" height="480" xmlns="http://www.w3.org/2000/svg" xmlns:svg="http://www.w3.org/2000/svg">
 <title>LDS TEMPLE</title>
 <metadata id="metadata7">image/svg+xml</metadata>
 <g>
  <title>Layer 1</title>
  <g id="layer1" display="inline"/>
  <g id="layer2" display="inline" opacity="0.5">
   <path stroke="#00bfbf" d="m348.78125,1.65625l-1.09375,1.90625l1.6875,0.4375l1.59375,1.3125l-0.4375,3.34375l-0.1875,1.5c0,0 -0.06021,0.3591 0,0.53125c0.0567,0.16193 0.28125,0.34375 0.28125,0.34375l2.15625,2.0625l0,10.1875l0.96875,0.21875l0.5625,6.6875l1.46875,0l0,2.40625c-2.12176,0.46756 -3.71875,2.33145 -3.71875,4.59375c0,1.72263 0.93662,3.2348 2.3125,4.0625l-1.15625,0l-11.375,76.03125l0,5.59375l-1.28125,0l0,-5.375l-1.1875,0l-1.8125,-9.125c0.34268,-0.13788 0.59375,-0.46738 0.59375,-0.84375c0,-0.50186 -0.44147,-0.90625 -0.96875,-0.90625c-0.52728,0 -0.96875,0.40439 -0.96875,0.90625c0,0.38263 0.27319,0.70987 0.625,0.84375l-1.84375,9.125l-1.15625,0l0,6.53125l0.53125,0l0,28.375l-0.75,0l0,-3.8125l-1.40625,0l-2.09375,-11.8125c0.46893,-0.18878 0.8125,-0.64127 0.8125,-1.15625c0,-0.68674 -0.59094,-1.25 -1.3125,-1.25c-0.72156,0 -1.3125,0.56326 -1.3125,1.25c0,0.52356 0.33108,0.97299 0.8125,1.15625l-2.09375,11.8125l-1.40625,0l0,7.75l0.78125,0l0,24l-1.75,0l0,-4.9375l-1.625,0l-2.46875,-12.28125c0.48688,-0.19598 0.875,-0.65274 0.875,-1.1875c0,-0.71301 -0.62582,-1.28125 -1.375,-1.28125c-0.74918,0 -1.375,0.56824 -1.375,1.28125c0,0.54364 0.37515,0.99716 0.875,1.1875l-2.46875,12.28125l-1.625,0l0,9.21875l0.875,0l0,75l-8.1875,0l0,-4.53125l-7.46875,0l0,7.40625l-5.9375,0l0,-4.125l-7.4375,0l0,7l-8.1875,0l0,-68.6875l0.71875,0l0,-7.4375l-1.3125,0l-2,-9.90625c0.40402,-0.15384 0.6875,-0.52936 0.6875,-0.96875c0,-0.57629 -0.48819,-1.0625 -1.09375,-1.0625c-0.60553,0 -1.09375,0.48621 -1.09375,1.0625c0,0.43222 0.29398,0.81033 0.6875,0.96875l-2,9.90625l-1.3125,0l0,4l-1.40625,0l0,-19.40625l0.625,0l0,-6.25l-1.125,0l-1.71875,-9.5625c0.3891,-0.14813 0.6875,-0.51434 0.6875,-0.9375c0,-0.55505 -0.47928,-1 -1.0625,-1c-0.58322,0 -1.0625,0.44495 -1.0625,1c0,0.41623 0.27722,0.78491 0.65625,0.9375l-1.6875,9.5625l-1.15625,0l0,3.0625l-0.59375,0l0,-22.9375l0.4375,0l0,-5.25l-0.96875,0l-1.46875,-7.375c0.28436,-0.10818 0.5,-0.37823 0.5,-0.6875c0,-0.40564 -0.35507,-0.75 -0.78125,-0.75c-0.42618,0 -0.78125,0.34436 -0.78125,0.75c0,0.3042 0.22302,0.57605 0.5,0.6875l-1.46875,7.375l-0.96875,0l0,4.3125l-1.0625,0l0,-4.5l-9.1875,-61.46875l-1,0c1.09314,-0.61844 1.84375,-1.73319 1.84375,-3.03125c0,-1.70435 -1.25375,-3.15826 -2.9375,-3.5l0,-3.34375c0.76071,-0.29452 1.28125,-0.98276 1.28125,-1.8125c0,-0.82974 -0.52054,-1.51798 -1.28125,-1.8125l0,-3.15625l-1.5625,0l0,3.15625c-0.76166,0.2941 -1.3125,0.98209 -1.3125,1.8125c0,0.83041 0.55084,1.5184 1.3125,1.8125l0,3.34375c-1.6843,0.34134 -2.96875,1.79529 -2.96875,3.5c0,1.29806 0.75061,2.41281 1.84375,3.03125l-1,0l-9.1875,61.46875l0,4.5l-1.0625,0l0,-4.3125l-0.9375,0l-1.46875,-7.375c0.27699,-0.11145 0.46875,-0.3833 0.46875,-0.6875c0,-0.40564 -0.35509,-0.75 -0.78125,-0.75c-0.42616,0 -0.75,0.34436 -0.75,0.75c0,0.30927 0.1844,0.57932 0.46875,0.6875l-1.46875,7.375l-0.9375,0l0,5.25l0.40625,0l0,22.9375l-0.59375,0l0,-3.0625l-1.125,0l-1.71875,-9.5625c0.37901,-0.15259 0.6875,-0.52127 0.6875,-0.9375c0,-0.55505 -0.47929,-1 -1.0625,-1c-0.58321,0 -1.0625,0.44495 -1.0625,1c0,0.42316 0.26714,0.78937 0.65625,0.9375l-1.6875,9.5625l-1.125,0l0,6.25l0.59375,0l0,19.40625l-1.40625,0l0,-4l-1.3125,0l-1.96875,-9.90625c0.39352,-0.15842 0.6875,-0.53653 0.6875,-0.96875c0,-0.57629 -0.51945,-1.0625 -1.125,-1.0625c-0.60555,0 -1.09375,0.48621 -1.09375,1.0625c0,0.43939 0.28349,0.81491 0.6875,0.96875l-2,9.90625l-1.28125,0l0,7.4375l0.6875,0l0,279.875l286.15625,0l0,-279.875l0.6875,0l0,-7.4375l-1.28125,0l-2,-9.90625c0.40399,-0.15384 0.6875,-0.52936 0.6875,-0.96875c0,-0.57629 -0.48822,-1.0625 -1.09375,-1.0625c-0.60553,0 -1.09375,0.48621 -1.09375,1.0625c0,0.43222 0.29395,0.81033 0.6875,0.96875l-2,9.90625l-1.3125,0l0,4l-1.40625,0l0,-19.40625l0.625,0l0,-6.25l-1.15625,0l-1.6875,-9.5625c0.3891,-0.14813 0.6875,-0.51434 0.6875,-0.9375c0,-0.55505 -0.47931,-1 -1.0625,-1c-0.58322,0 -1.0625,0.44495 -1.0625,1c0,0.41623 0.27722,0.78491 0.65625,0.9375l-1.6875,9.5625l-1.15625,0l0,3.0625l-0.59375,0l0,-22.9375l0.4375,0l0,-5.25l-0.96875,0l-1.46875,-7.375c0.28436,-0.10818 0.5,-0.37823 0.5,-0.6875c0,-0.40564 -0.35507,-0.75 -0.78125,-0.75c-0.42618,0 -0.78125,0.34436 -0.78125,0.75c0,0.3042 0.22302,0.57605 0.5,0.6875l-1.5,7.375l-0.9375,0l0,4.3125l-1.0625,0l0,-4.5l-9.1875,-61.46875l-1,0c1.09314,-0.61844 1.84375,-1.73319 1.84375,-3.03125c0,-1.70435 -1.25375,-3.15826 -2.9375,-3.5l0,-3.34375c0.74674,-0.30057 1.28125,-0.99234 1.28125,-1.8125c0,-0.82016 -0.53451,-1.51193 -1.28125,-1.8125l0,-3.15625l-1.5625,0l0,3.15625c-0.76166,0.2941 -1.3125,0.98209 -1.3125,1.8125c0,0.83041 0.55084,1.5184 1.3125,1.8125l0,3.34375c-1.6843,0.34134 -2.96875,1.79529 -2.96875,3.5c0,1.29806 0.75061,2.41281 1.84375,3.03125l-1,0l-9.1875,61.46875l0,4.5l-1.0625,0l0,-4.3125l-0.9375,0l-1.46875,-7.375c0.27698,-0.11145 0.46875,-0.3833 0.46875,-0.6875c0,-0.40564 -0.35507,-0.75 -0.78125,-0.75c-0.42618,0 -0.75,0.34436 -0.75,0.75c0,0.30927 0.18439,0.57932 0.46875,0.6875l-1.46875,7.375l-0.9375,0l0,5.25l0.40625,0l0,22.9375l-0.59375,0l0,-3.0625l-1.125,0l-1.71875,-9.5625c0.379,-0.15259 0.6875,-0.52127 0.6875,-0.9375c0,-0.55505 -0.47928,-1 -1.0625,-1c-0.58322,0 -1.0625,0.44495 -1.0625,1c0,0.42316 0.26712,0.78937 0.65625,0.9375l-1.6875,9.5625l-1.15625,0l0,6.25l0.625,0l0,19.40625l-1.40625,0l0,-4l-1.3125,0l-1.96875,-9.90625c0.39352,-0.15842 0.6875,-0.53653 0.6875,-0.96875c0,-0.57629 -0.51947,-1.0625 -1.125,-1.0625c-0.60553,0 -1.09375,0.48621 -1.09375,1.0625c0,0.43939 0.28348,0.81491 0.6875,0.96875l-2,9.90625l-1.28125,0l0,7.4375l0.6875,0l0,68.6875l-8.15625,0l0,-7l-7.46875,0l0,4.125l-5.9375,0l0,-7.40625l-7.46875,0l0,4.53125l-8.1875,0l0,-75l0.875,0l0,-9.21875l-1.625,0l-2.4375,-12.28125c0.49988,-0.19034 0.84375,-0.64386 0.84375,-1.1875c0,-0.71301 -0.62579,-1.28125 -1.375,-1.28125c-0.74918,0 -1.34375,0.56824 -1.34375,1.28125c0,0.53476 0.35687,0.99152 0.84375,1.1875l-2.46875,12.28125l-1.59375,0l0,4.9375l-1.78125,0l0,-24l0.78125,0l0,-7.75l-1.40625,0l-2.09375,-11.8125c0.48145,-0.18326 0.8125,-0.63269 0.8125,-1.15625c0,-0.68674 -0.59094,-1.25 -1.3125,-1.25c-0.72156,0 -1.3125,0.56326 -1.3125,1.25c0,0.51498 0.37482,0.96747 0.84375,1.15625l-2.09375,11.8125l-1.40625,0l0,3.8125l-0.78125,0l0,-28.375l0.5625,0l0,-6.53125l-1.1875,0l-1.8125,-9.125c0.35181,-0.13388 0.59375,-0.46112 0.59375,-0.84375c0,-0.50186 -0.44147,-0.90625 -0.96875,-0.90625c-0.52728,0 -0.96875,0.40439 -0.96875,0.90625c0,0.37637 0.28232,0.70587 0.625,0.84375l-1.84375,9.125l-1.15625,0l0,5.375l-1.3125,0l0,-5.59375l-11.375,-76.03125l-1.15625,0c1.37588,-0.8277 2.3125,-2.33987 2.3125,-4.0625c0,-2.2623 -1.59699,-4.12619 -3.71875,-4.59375l0,-2.6875l1.15625,-0.875l0,-5.25l0.875,-0.5625l-0.0625,-7.28125l2.65625,5.59375c0,0 0.33551,-0.47318 0.40625,-0.71875c0.11337,-0.39359 -0.09375,-1.09375 -0.09375,-1.09375l-2.15625,-6.875l-0.34375,-0.6875l-0.4375,-0.3125l-1.71875,0c0,0 0.02008,-2.1134 -0.1875,-3.15625c-0.07071,-0.35498 -0.3125,-1.0625 -0.3125,-1.0625c0,0 -0.23108,-0.6041 -0.46875,-0.78125c-0.29831,-0.22238 -0.65936,-0.20728 -1.03125,-0.21875c-0.35043,-0.0108 -0.64844,-0.01089 -0.9375,0.1875c-0.16257,0.11157 -0.40625,0.46875 -0.40625,0.46875l-0.125,0.5l-4.6875,-4.375l-1.15625,-1.75zm9.65625,218.15625c5.2164,0 9.4375,4.22107 9.4375,9.4375c0,0.07373 0,0.14545 0,0.21875l0,40.84375l-18.875,0l0,-40.84375c-0.00201,-0.0733 0,-0.14502 0,-0.21875c0,-5.21643 4.22101,-9.4375 9.4375,-9.4375zm-117.9375,24.25c3.94458,0 7.125,3.2113 7.125,7.15625c0,0.05572 0,0.10083 0,0.15625l0,21.40625l-14.28125,0l0,-21.40625c0,-0.05542 0,-0.10053 0,-0.15625c0,-3.94495 3.21118,-7.15625 7.15625,-7.15625zm232.625,0c3.9447,0 7.125,3.2113 7.125,7.15625c0,0.05572 0,0.10083 0,0.15625l0,21.40625l-14.28125,0l0,-21.40625c0,-0.05542 0,-0.10053 0,-0.15625c0,-3.94495 3.21124,-7.15625 7.15625,-7.15625zm-114.6875,45.5c5.2164,0 9.4375,4.22107 9.4375,9.4375c0,0.07373 0,0.14545 0,0.21875l0,60.59375l-18.875,0l0,-60.59375c-0.00201,-0.0733 0,-0.14502 0,-0.21875c0,-5.21643 4.22101,-9.4375 9.4375,-9.4375zm-117.9375,1.375c3.94458,0 7.125,3.18005 7.125,7.125c0,0.05572 0,0.10083 0,0.15625l0,21.40625l-14.28125,0l0,-21.40625c0,-0.05542 0,-0.10053 0,-0.15625c0,-3.94495 3.21118,-7.125 7.15625,-7.125zm232.625,0c3.9447,0 7.125,3.18005 7.125,7.125c0,0.05572 0,0.10083 0,0.15625l0,21.40625l-14.28125,0l0,-21.40625c0,-0.05542 0,-0.10053 0,-0.15625c0,-3.94495 3.21124,-7.125 7.15625,-7.125zm-175.625,3.0625c4.68597,0 8.46875,4.12665 8.46875,9.1875c0,5.06085 -3.78278,9.15625 -8.46875,9.15625c-4.68597,0 -8.5,-4.0954 -8.5,-9.15625c0,-5.06085 3.81403,-9.1875 8.5,-9.1875zm118.59375,0c4.68597,0 8.5,4.12665 8.5,9.1875c0,5.06085 -3.81403,9.15625 -8.5,9.15625c-4.68597,0 -8.46875,-4.0954 -8.46875,-9.15625c0,-5.06085 3.78278,-9.1875 8.46875,-9.1875zm-175.59375,38.125c3.94458,0 7.125,3.18012 7.125,7.125c0,0.05572 0,0.13208 0,0.1875l0,22.53125l-14.28125,0l0,-22.53125c0,-0.05542 0,-0.13171 0,-0.1875c0,-3.94488 3.21118,-7.125 7.15625,-7.125zm57,0c3.94458,0 7.125,3.18012 7.125,7.125c0,0.05572 0,0.13208 0,0.1875l0,22.53125l-14.28125,0l0,-22.53125l0.03125,0c0,-0.05542 -0.03125,-0.13171 -0.03125,-0.1875c0,-3.94488 3.21121,-7.125 7.15625,-7.125zm118.59375,0c3.94458,0 7.15625,3.18012 7.15625,7.125c0,0.05572 -0.03125,0.13208 -0.03125,0.1875l0.03125,0l0,22.53125l-14.28125,0l0,-22.53125c0,-0.05542 0,-0.13171 0,-0.1875c0,-3.94488 3.17996,-7.125 7.125,-7.125zm57.03125,0c3.9447,0 7.125,3.18012 7.125,7.125c0,0.05572 0,0.13208 0,0.1875l0,22.53125l-14.28125,0l0,-22.53125c0,-0.05542 0,-0.13171 0,-0.1875c0,-3.94488 3.21124,-7.125 7.15625,-7.125zm-232.625,44.8125c3.94458,0 7.125,3.18012 7.125,7.125c0,0.05579 0,0.10083 0,0.15625l0,23.78125l-14.28125,0l0,-23.78125c0,-0.05542 0,-0.10016 0,-0.15625c0,-3.94488 3.21118,-7.125 7.15625,-7.125zm232.625,0c3.9447,0 7.125,3.18012 7.125,7.125c0,0.05579 0,0.10083 0,0.15625l0,23.78125l-14.28125,0l0,-23.78125c0,-0.05542 0,-0.10016 0,-0.15625c0,-3.94488 3.21124,-7.125 7.15625,-7.125zm-175.625,2.75c4.68597,0 8.46875,4.0954 8.46875,9.15625c0,5.06085 -3.78278,9.15625 -8.46875,9.15625c-4.68597,0 -8.5,-4.0954 -8.5,-9.15625c0,-5.06085 3.81403,-9.15625 8.5,-9.15625zm118.59375,0c4.68597,0 8.5,4.0954 8.5,9.15625c0,5.06085 -3.81403,9.15625 -8.5,9.15625c-4.68597,0 -8.46875,-4.0954 -8.46875,-9.15625c0,-5.06085 3.78278,-9.15625 8.46875,-9.15625zm-57.65625,2.03125c5.2164,0 9.4375,4.22101 9.4375,9.4375c0,0.07373 0,0.14545 0,0.21875l0,60.59375l-18.875,0l0,-60.59375c-0.00201,-0.0733 0,-0.14502 0,-0.21875c0,-5.21649 4.22101,-9.4375 9.4375,-9.4375zm-61.75,31.5625c6.14123,0 11.09375,4.95252 11.09375,11.09375c0,0.0415 0.00046,0.08362 0,0.125l0,27.46875l-22.21875,0l0,-27.46875c-0.00046,-0.04132 0,-0.08362 0,-0.125c0,-6.14123 4.98377,-11.09375 11.125,-11.09375zm120.25,0c6.14123,0 11.09375,4.95252 11.09375,11.09375c0,0.0415 0.00046,0.08362 0,0.125l0,27.46875l-22.21875,0l0,-27.46875c-0.00046,-0.04132 0,-0.08362 0,-0.125c0,-6.14123 4.98377,-11.09375 11.125,-11.09375zm-176.4375,7.625c3.94458,0 7.125,3.18012 7.125,7.125c0,0.05572 0,0.13202 0,0.1875l0,23.75l-14.28125,0l0,-23.75c0,-0.05536 0,-0.13202 0,-0.1875c0,-3.94488 3.21118,-7.125 7.15625,-7.125zm232.625,0c3.9447,0 7.125,3.18012 7.125,7.125c0,0.05572 0,0.13202 0,0.1875l0,23.75l-14.28125,0l0,-23.75c0,-0.05536 0,-0.13202 0,-0.1875c0,-3.94488 3.21124,-7.125 7.15625,-7.125z" id="path5887" fill="#007f7f"/>
   <g id="g6449" fill="#ffffff"/>
   <g id="g6476" fill="#ffffff"/>
   <g id="g6491" fill="#ffffff"/>
  </g>
 </g>
</svg>